<svg xmlns="http://www.w3.org/2000/svg" xmlns:xlink="http://www.w3.org/1999/xlink" preserveAspectRatio="xMidYMid" width="128" height="128" viewBox="0 0 128 128">
  <defs>
    <style>
      .cls-1 {
        fill: url(#linear-gradient-1);
        fill-rule: evenodd;
      }
    </style>

    <linearGradient id="linear-gradient-1" gradientUnits="userSpaceOnUse" x1="64" y1="118" x2="64" y2="10">
      <stop offset="0" stop-color="#0084ff"/>
      <stop offset="1" stop-color="#ff0084"/>
    </linearGradient>
  </defs>
  <path d="M102.831,90.407 C109.363,96.590 118.300,100.198 128.000,100.198 L128.000,118.000 C111.664,118.000 96.839,110.690 86.899,99.154 L26.212,38.484 C19.594,31.711 10.213,27.505 -0.000,27.505 L-0.000,10.000 C15.017,10.000 28.743,16.147 38.523,26.058 L102.831,90.407 ZM113.811,30.303 C109.221,32.196 105.099,34.983 101.707,38.484 L84.234,55.827 L71.987,43.536 L89.151,26.320 L89.166,26.333 C98.938,16.261 112.886,10.000 128.000,10.000 L128.000,74.088 L113.811,74.088 L113.811,30.303 ZM14.189,97.653 C18.304,95.937 22.041,93.504 25.206,90.506 L25.184,90.483 L43.909,71.701 L56.155,83.992 L41.305,98.888 C31.374,110.577 16.506,118.000 -0.000,118.000 L-0.000,53.912 L14.189,53.912 L14.189,97.653 Z" class="cls-1"/>
</svg>
